<?xml version="1.0" encoding="UTF-8"?>
<svg width="28px" height="32px" viewBox="0 0 28 32" version="1.1" xmlns="http://www.w3.org/2000/svg" xmlns:xlink="http://www.w3.org/1999/xlink">
    <!-- Generator: Sketch 51.2 (57519) - http://www.bohemiancoding.com/sketch -->
    <title>亚军</title>
    <desc>Created with Sketch.</desc>
    <defs></defs>
    <g id="DAPP_1.5优化" stroke="none" stroke-width="1" fill="none" fill-rule="evenodd">
        <g id="D-001-达人榜" transform="translate(-27.000000, -266.000000)">
            <g id="item2" transform="translate(0.000000, 257.000000)">
                <g id="亚军" transform="translate(27.000000, 9.000000)">
                    <path d="M15.4653652,25.3600044 L22.0593006,31.9539398 L23.4342895,27.8350376 L27.5532359,26.4600044 L20.9591678,19.8660691 L15.4653652,25.3600044 Z M0.355272244,26.4600044 L4.47417441,27.8350376 L5.84925188,31.9539398 L12.4432315,25.3600044 L6.94920761,19.8660691 L0.355272244,26.4600044 Z" id="Fill-4" fill="#B7B8B8"></path>
                    <g id="Group-12" transform="translate(0.666667, 0.040726)">
                        <path d="M14.7996591,1.05392209 L24.8628287,6.86366091 C25.7977999,7.40350155 26.373807,8.40106684 26.373807,9.48079239 L26.373807,21.1018637 C26.373807,22.1820761 25.797977,23.1794644 24.8628287,23.7188181 L14.7996591,29.5301062 C13.8645108,30.069637 12.7126295,30.069637 11.7774812,29.5301062 L1.71426737,23.7203674 C0.779340416,23.1805268 0.203333333,22.1829172 0.203333333,21.1032802 L0.203333333,9.48216467 C0.203333333,8.40195219 0.77894201,7.40456397 1.71426737,6.86521027 L11.7774812,1.05392209 C12.7126295,0.514391324 13.8645108,0.514391324 14.7996591,1.05392209" id="Fill-5" fill="#E1E2E2"></path>
                        <polygon id="Fill-7" fill="#E8E9E9" points="15.2473749 13.4020319 15.2247543 13.3733466 19.945073 5.1036255 16.9924834 3.23005312 13.2875255 12.2718415 9.54033643 3.1287251 6.62563966 5.09618858 11.3504737 13.3733466 11.3278088 13.4020319 0.954900398 10.2879548 0.927764498 13.9505489 10.7566711 15.5567906 10.7777866 15.6489553 1.42023904 22.2700266 4.30177955 24.6513015 12.1770341 17.3790128 11.4305533 28.8913192 15.1431253 28.8913192 14.395228 17.3805622 22.2009827 24.5878663 25.1534396 22.2716202 15.795892 15.6503276 15.8169633 15.5581629 25.5976184 13.9595352 25.4738468 10.3332404"></polygon>
                        <g id="Group-2">
                            <path d="M8.58983051,20.583274 L11.6752994,20.583274 L11.6752994,14.4121554 L8.58983051,14.4121554 L8.58983051,20.583274 Z M14.7609492,15.9548446 L17.8463729,15.9548446 L17.8463729,9.78395198 L14.7609492,9.78395198 L14.7609492,15.9548446 Z" id="Fill-7" fill="#FEFEFE"></path>
                            <path d="M8.58983051,17.4977599 L17.8463729,17.4977599 L17.8463729,14.4121554 L8.58983051,14.4121554 L8.58983051,17.4977599 Z M8.58983051,22.1259633 L17.8463729,22.1259633 L17.8463729,19.0404492 L8.58983051,19.0404492 L8.58983051,22.1259633 Z M8.58983051,12.8694209 L17.8463729,12.8694209 L17.8463729,9.78395198 L8.58983051,9.78395198 L8.58983051,12.8694209 Z" id="Fill-9" fill="#FEFEFE"></path>
                            <path d="M14.7986897,1.05422311 L24.8618592,6.86396193 C25.7968305,7.40380257 26.3728375,8.40136786 26.3728375,9.4810934 L26.3728375,21.1021647 C26.3728375,22.1823772 25.7970075,23.1797654 24.8618592,23.7191191 L14.7986897,29.5304073 C13.8635414,30.069938 12.71166,30.069938 11.7765117,29.5304073 L1.71329792,23.7206684 C0.778370961,23.1808278 0.202363878,22.1832182 0.202363878,21.1035812 L0.202363878,9.48246569 C0.202363878,8.40225321 0.777972554,7.40486498 1.71329792,6.86551129 L11.7765117,1.05422311 C12.71166,0.514692342 13.8635414,0.514692342 14.7986897,1.05422311 Z M14.0431784,2.36267818 C13.5758035,2.09224878 12.999398,2.09224878 12.5319788,2.36267818 L2.46880921,8.17401062 C2.00187694,8.44444002 1.71329792,8.94315626 1.71329792,9.48246569 L1.71329792,21.1035812 C1.71329792,21.6430235 2.00187694,22.1415626 2.46880921,22.4121691 L12.5319788,28.2219522 C12.999398,28.4923816 13.5758035,28.4923816 14.0431784,28.2219522 L24.1063922,22.4121691 C24.5732802,22.1415626 24.8618592,21.6430235 24.8618592,21.1035812 L24.8618592,9.48246569 C24.8618592,8.94315626 24.5732802,8.44444002 24.1063922,8.17401062 L14.0431784,2.36267818 Z" id="Fill-11" fill="#CDCDCE"></path>
                        </g>
                    </g>
                </g>
            </g>
        </g>
    </g>
</svg>