<?xml version="1.0" encoding="UTF-8"?>
<svg width="375px" height="100px" viewBox="0 0 375 100" version="1.1" xmlns="http://www.w3.org/2000/svg" xmlns:xlink="http://www.w3.org/1999/xlink">
    <!-- Generator: Sketch 51.2 (57519) - http://www.bohemiancoding.com/sketch -->
    <title>banner</title>
    <desc>Created with Sketch.</desc>
    <defs>
        <radialGradient cx="18.314216%" cy="50%" fx="18.314216%" fy="50%" r="306.32169%" gradientTransform="translate(0.183142,0.500000),scale(0.266667,1.000000),translate(-0.183142,-0.500000)" id="radialGradient-1">
            <stop stop-color="#5B7CFA" offset="0%"></stop>
            <stop stop-color="#385CE3" offset="100%"></stop>
        </radialGradient>
        <rect id="path-2" x="0" y="0" width="375" height="100"></rect>
    </defs>
    <g id="DAPP_1.5优化" stroke="none" stroke-width="1" fill="none" fill-rule="evenodd">
        <g id="D-001-达人榜" transform="translate(0.000000, -65.000000)">
            <g id="banner" transform="translate(0.000000, 65.000000)">
                <mask id="mask-3" fill="white">
                    <use xlink:href="#path-2"></use>
                </mask>
                <use id="Rectangle-2" fill="url(#radialGradient-1)" fill-rule="nonzero" xlink:href="#path-2"></use>
                <path d="M71,106 C40.072054,106 15,80.927946 15,50 C15,19.072054 40.072054,-6 71,-6 C101.927946,-6 127,19.072054 127,50 C127,80.927946 101.927946,106 71,106 Z M71,82 C88.673112,82 103,67.673112 103,50 C103,32.326888 88.673112,18 71,18 C53.326888,18 39,32.326888 39,50 C39,67.673112 53.326888,82 71,82 Z" id="Combined-Shape" fill="#000000" fill-rule="nonzero" opacity="0.032746" style="mix-blend-mode: hard-light;" mask="url(#mask-3)"></path>
                <path d="M71,165 C7.48725377,165 -44,113.512746 -44,50 C-44,-13.5127462 7.48725377,-65 71,-65 C134.512746,-65 186,-13.5127462 186,50 C186,113.512746 134.512746,165 71,165 Z M71,141 C121.257912,141 162,100.257912 162,50 C162,-0.257912232 121.257912,-41 71,-41 C20.7420878,-41 -20,-0.257912232 -20,50 C-20,100.257912 20.7420878,141 71,141 Z" id="Combined-Shape" fill="#000000" fill-rule="nonzero" opacity="0.032746" style="mix-blend-mode: hard-light;" mask="url(#mask-3)"></path>
                <path d="M71,218 C-21.783838,218 -97,142.783838 -97,50 C-97,-42.783838 -21.783838,-118 71,-118 C163.783838,-118 239,-42.783838 239,50 C239,142.783838 163.783838,218 71,218 Z M71,195 C151.081289,195 216,130.081289 216,50 C216,-30.0812887 151.081289,-95 71,-95 C-9.08128872,-95 -74,-30.0812887 -74,50 C-74,130.081289 -9.08128872,195 71,195 Z" id="Combined-Shape" fill="#000000" fill-rule="nonzero" opacity="0.042746" style="mix-blend-mode: hard-light;" mask="url(#mask-3)"></path>
                <path d="M67.2054517,60.0531436 C69.0247146,57.1837539 69.4321368,54.4349354 69.5029462,52.9563876 L72.309926,52.9563876 C72.3789773,54.4349354 72.7852764,57.1837539 74.6055159,60.0531436 L67.2054517,60.0531436 Z M62.5160178,67.7637923 L79.2947057,67.7637923 L79.2947057,62.2911582 L62.5160178,62.2911582 L62.5160178,67.7637923 Z M75.3189322,48.5796379 C74.0593562,49.8460507 72.6094251,50.5404218 70.9069244,50.6896097 C69.2226877,50.5404218 67.7889695,49.8499086 66.5389161,48.5929696 C61.967221,43.9869442 61.720365,33.5618562 61.7070333,32.2381611 L80.1038855,32.2381611 L80.10579,32.3528234 C80.10579,32.4657277 80.1334789,43.7267565 75.3189322,48.5796379 Z M90.5892835,35.7979175 C90.8006372,36.0829129 90.8656841,36.4500959 90.7632792,36.788711 C90.7184495,36.936141 86.5244368,50.3395674 74.5326067,52.6158679 C74.560491,53.8802297 74.9152702,56.9961824 77.3733797,60.0531436 L80.1899311,60.0531436 C80.9283504,60.0531436 81.5319389,60.8142708 81.5319389,61.7459263 L81.5319389,68.3070708 C81.5319389,69.2406309 80.9283504,70 80.1899311,70 L61.622697,70 C60.8825685,70 60.2790287,69.2406309 60.2790287,68.3070708 L60.2790287,61.7459263 C60.2790287,60.8142708 60.8825685,60.0531436 61.622697,60.0531436 L64.4318255,60.0531436 C66.8802171,56.9961824 67.2409052,53.8687048 67.273331,52.6158679 C55.286482,50.3376629 51.0925182,36.936141 51.0474932,36.7868065 C50.9452347,36.4500959 51.0102817,36.0829129 51.2216353,35.7979175 C51.432989,35.515022 51.7654999,35.3484491 52.1187652,35.3484491 L57.2978579,35.3484491 L57.5666404,37.5845592 L53.7150519,37.5845592 C54.8647514,40.4193744 58.0046328,46.6228585 64.2357081,49.3640101 C59.438351,43.5335203 59.465991,32.5670094 59.4698001,32.0811597 L59.477467,30.9621768 L59.5167296,30.9621768 C59.5932525,30.4188983 60.0561991,30 60.6194996,30 L81.2219405,30 C81.8407653,30 82.3411188,30.5011348 82.3411188,31.1189829 C82.3411188,31.1535085 82.3342332,31.1859343 82.3304241,31.2166509 L82.3323286,31.2166509 L82.3430233,32.3356338 C82.3449278,32.8138654 82.37164,43.5604278 77.6316629,49.3409604 C83.8234756,46.5844749 86.9500254,40.4117563 88.0959158,37.5845592 L84.2443273,37.5845592 L84.5130609,35.3484491 L89.6921536,35.3484491 C90.046005,35.3484491 90.3798344,35.5148266 90.5892835,35.7979175 Z M66.6985838,66.1110437 L75.1132726,66.1110437 C75.7301929,66.1110437 76.2313277,65.6099089 76.2313277,64.9920608 C76.2313277,64.3741639 75.7301929,63.8730779 75.1132726,63.8730779 L66.6985838,63.8730779 C66.0806869,63.8730779 65.5796009,64.3741639 65.5796009,64.9920608 C65.5796009,65.6099089 66.0806869,66.1110437 66.6985838,66.1110437 Z" id="Combined-Shape" fill="#FFFFFF" opacity="0.503571429" style="mix-blend-mode: soft-light;" mask="url(#mask-3)"></path>
                <text id="预测达人榜" style="mix-blend-mode: hard-light;" mask="url(#mask-3)" font-family="FZLTTHJW--GB1-0, FZLanTingHeiS-H-GB" font-size="24" font-weight="normal" fill="#9FCFFF">
                    <tspan x="225" y="56">预测达人榜</tspan>
                </text>
            </g>
        </g>
    </g>
</svg>