<?xml version="1.0" encoding="utf-8"?>
<!-- Generator: Adobe Illustrator 22.1.0, SVG Export Plug-In . SVG Version: 6.00 Build 0)  -->
<svg version="1.1" id="图层_1" xmlns="http://www.w3.org/2000/svg" xmlns:xlink="http://www.w3.org/1999/xlink" x="0px" y="0px"
	 viewBox="0 0 64 85" style="enable-background:new 0 0 64 85;" xml:space="preserve">
<style type="text/css">
	.st0{fill:#363E8D;}
</style>
<path id="Combined-Shape" class="st0" d="M18.5,0C21,0,23,1.9,23,4.6v75.9c0,2.4-2,4.6-4.5,4.6S14,83.1,14,80.4V4.3
	C14,1.9,15.8,0,18.5,0z M31.5,0C34,0,36,1.9,36,4.6v75.9c0,2.4-2,4.6-4.5,4.6S27,83.1,27,80.4V4.3C26.8,1.9,28.8,0,31.5,0z M45.5,0
	C48,0,50,1.9,50,4.6v75.9c0,2.4-2,4.6-4.5,4.6S41,83.1,41,80.4V4.3C40.8,1.9,42.8,0,45.5,0z M59.5,0C62,0,64,1.9,64,4.5v28
	c0,2.4-2,4.5-4.5,4.5S55,35.1,55,32.5V4.3C54.8,1.9,56.8,0,59.5,0z M4.5,84C2,84,0,82.1,0,79.5V51.5C0,49.1,2,47,4.5,47
	S9,48.9,9,51.5v28.2C9,82.1,7,84,4.5,84z"/>
</svg>
