<?xml version="1.0" encoding="UTF-8"?>
<svg width="18px" height="18px" viewBox="0 0 18 18" version="1.1" xmlns="http://www.w3.org/2000/svg" xmlns:xlink="http://www.w3.org/1999/xlink">
    <!-- Generator: Sketch 51.2 (57519) - http://www.bohemiancoding.com/sketch -->
    <title>Dhelp</title>
    <desc>Created with Sketch.</desc>
    <defs></defs>
    <g id="DAPP_1.5优化" stroke="none" stroke-width="1" fill="none" fill-rule="evenodd">
        <g id="D-001-达人榜" transform="translate(-342.000000, -34.000000)" fill="#333333">
            <g id="分类" transform="translate(0.000000, 20.000000)">
                <path d="M351,17.5913462 C351.649042,17.5913462 352.247593,17.7536041 352.795673,18.078125 C353.343753,18.4026459 353.780046,18.8389396 354.104567,19.3870192 C354.429088,19.9350989 354.591346,20.5336506 354.591346,21.1826923 C354.591346,21.6730794 354.447117,22.1274018 354.158654,22.5456731 C353.985576,22.8052898 353.675483,23.1334115 353.228365,23.5300481 C352.781248,23.9266847 352.478366,24.233172 352.319712,24.4495192 C352.031249,24.8389443 351.887019,25.2572093 351.887019,25.7043269 L350.112981,25.7043269 C350.112981,25.1706704 350.20673,24.6947136 350.394231,24.2764423 C350.538462,23.959133 350.762018,23.6562514 351.064904,23.3677885 C351.180289,23.2668264 351.447113,23.0504824 351.865385,22.71875 C352.182694,22.4735565 352.406249,22.2572125 352.536058,22.0697115 C352.723559,21.8100949 352.817308,21.5144247 352.817308,21.1826923 C352.817308,20.6923052 352.637021,20.2740402 352.276442,19.9278846 C351.915864,19.581729 351.490387,19.4086538 351,19.4086538 C350.509613,19.4086538 350.084136,19.581729 349.723558,19.9278846 C349.362979,20.2740402 349.182692,20.6923052 349.182692,21.1826923 L347.408654,21.1826923 C347.408654,20.5336506 347.570912,19.9350989 347.895433,19.3870192 C348.219954,18.8389396 348.656247,18.4026459 349.204327,18.078125 C349.752407,17.7536041 350.350958,17.5913462 351,17.5913462 Z M351,31 C352.437133,31 353.778437,30.6327382 355.023952,29.8982036 C356.237531,29.1956053 357.195605,28.237531 357.898204,27.0239521 C358.632738,25.7784369 359,24.4371329 359,23 C359,21.5628671 358.632738,20.2215631 357.898204,18.9760479 C357.195605,17.762469 356.237531,16.8043947 355.023952,16.1017964 C353.778437,15.3672618 352.437133,15 351,15 C349.562867,15 348.221563,15.3672618 346.976048,16.1017964 C345.762469,16.8043947 344.804395,17.762469 344.101796,18.9760479 C343.367262,20.2215631 343,21.5628671 343,23 C343,24.4371329 343.367262,25.7784369 344.101796,27.0239521 C344.804395,28.237531 345.762469,29.1956053 346.976048,29.8982036 C348.221563,30.6327382 349.562867,31 351,31 Z M351,14 C352.644239,14 354.165858,14.4110536 355.564904,15.2331731 C356.92068,16.0120231 357.987977,17.0793201 358.766827,18.4350962 C359.588946,19.8341416 360,21.355761 360,23 C360,24.644239 359.588946,26.1658584 358.766827,27.5649038 C357.987977,28.9206799 356.92068,29.9879769 355.564904,30.7668269 C354.165858,31.5889464 352.644239,32 351,32 C349.355761,32 347.834142,31.5889464 346.435096,30.7668269 C345.07932,29.9735537 344.012023,28.8990452 343.233173,27.5432692 C342.411054,26.1442238 342,24.6298158 342,23 C342,21.3701842 342.411054,19.8557762 343.233173,18.4567308 C344.026446,17.1009548 345.100955,16.0264463 346.456731,15.2331731 C347.855776,14.4110536 349.370184,14 351,14 Z M350.112981,28.4086538 L350.112981,26.5913462 L351.887019,26.5913462 L351.887019,28.4086538 L350.112981,28.4086538 Z" id="Dhelp"></path>
            </g>
        </g>
    </g>
</svg>