<?xml version="1.0" encoding="UTF-8" standalone="no"?>
<!DOCTYPE svg PUBLIC "-//W3C//DTD SVG 1.1//EN" "http://www.w3.org/Graphics/SVG/1.1/DTD/svg11.dtd">
<!-- 由 Microsoft Visio, SVG Export 生成 安全.svg 页-1 -->
<svg xmlns="http://www.w3.org/2000/svg" xmlns:xlink="http://www.w3.org/1999/xlink" xmlns:ev="http://www.w3.org/2001/xml-events"
		width="8.849in" height="11.8986in" viewBox="0 0 637.128 856.7" xml:space="preserve" color-interpolation-filters="sRGB"
		class="st2">
	<style type="text/css">
	<![CDATA[
		.st1 {fill:none;stroke:none;stroke-linecap:round;stroke-linejoin:round;stroke-width:0.75}
		.st2 {fill:none;fill-rule:evenodd;font-size:12px;overflow:visible;stroke-linecap:square;stroke-miterlimit:3}
	]]>
	</style>

	<g>
		<title>页-1</title>
		<g id="shape1-1" transform="translate(0.375,-0.375)">
			<title>工作表.1</title>
			<rect x="0" y="0.750024" width="636.378" height="855.95" class="st1"/>
			<svg viewBox="0 0 1253 1681" height="855.95" preserveAspectRatio="none" width="636.378" x="0" y="0.750024">
				<clipPath id="mfid1">
					<rect width="1253" height="1681" id="mfid2"/>
				</clipPath>
				<g clip-path="url(#mfid1)">
					<mask id="mfid3">
						<rect width="1254" height="1682" fill="white" stroke="none"/>
					</mask>
					<mask id="mfid4" fill="white" stroke="none">
						<g>
							<g mask="url(#mfid3)">
								<use xlink:href="#mfid2"/>
							</g>
						</g>
					</mask>
					<!-- Unsupported Record: EmfPlusRecordTypeSetPixelOffsetMode  -->
					<defs>
						<path id="mfid5"
								d="M783350,0 L4085800,0 C4518500,-0.0000000023615 4869200,313870 4869200,701040 C4869200,1088200 4518500,1402100 4085800,1402100 L783350,1402100 C350720,1402100 0,1088200 0,701040 C0,313870 350720,0.00000000011807 783350,0 Z"/>
					</defs>
					<g mask="url(#mfid4)">
						<g
								transform="matrix(0.0000000000000000000080357, 0.00013123, -0.00013123, 0.0000000000000000000080357, 184, 1042)">
							<g fill="#00479d">
								<use xlink:href="#mfid5" fill-rule="evenodd" stroke="none"/>
								<!-- Unsupported Record: EmfPlusRecordTypeSetPixelOffsetMode  -->
								<defs>
									<path id="mfid6"
											d="M783350,0 L4085800,0 C4518500,-0.0000000023615 4869200,313870 4869200,701040 C4869200,1088200 4518500,1402100 4085800,1402100 L783350,1402100 C350720,1402100 0,1088200 0,701040 C0,313870 350720,0.00000000011807 783350,0 Z"/>
								</defs>
							</g>
						</g>
						<g
								transform="matrix(0.0000000000000000000080357, 0.00013123, -0.00013123, 0.0000000000000000000080357, 184, 907)">
							<g fill="#00479d">
								<use xlink:href="#mfid6" fill-rule="evenodd" stroke="none"/>
								<!-- Unsupported Record: EmfPlusRecordTypeSetPixelOffsetMode  -->
								<defs>
									<path id="mfid7"
											d="M783350,0 L4085800,0 C4518500,-0.0000000023743 4869200,315570 4869200,704850 C4869200,1094100 4518500,1409700 4085800,1409700 L783350,1409700 C350720,1409700 0,1094100 0,704850 C0,315570 350720,0.00000000011871 783350,0 Z"/>
								</defs>
							</g>
						</g>
						<g
								transform="matrix(0.0000000000000000000080357, 0.00013123, -0.00013123, 0.0000000000000000000080357, 452, 1043)">
							<g fill="#00479d">
								<use xlink:href="#mfid7" fill-rule="evenodd" stroke="none"/>
								<!-- Unsupported Record: EmfPlusRecordTypeSetPixelOffsetMode  -->
								<defs>
									<path id="mfid8"
											d="M783350,0 L4085800,0 C4518500,-0.0000000023743 4869200,315570 4869200,704850 C4869200,1094100 4518500,1409700 4085800,1409700 L783350,1409700 C350720,1409700 0,1094100 0,704850 C0,315570 350720,0.00000000011871 783350,0 Z"/>
								</defs>
							</g>
						</g>
						<g
								transform="matrix(0.0000000000000000000080357, 0.00013123, -0.00013123, 0.0000000000000000000080357, 452, 0)">
							<g fill="#00479d">
								<use xlink:href="#mfid8" fill-rule="evenodd" stroke="none"/>
								<!-- Unsupported Record: EmfPlusRecordTypeSetPixelOffsetMode  -->
								<defs>
									<path id="mfid9"
											d="M783350,0 L4085800,0 C4518500,-0.0000000023743 4869200,315570 4869200,704850 C4869200,1094100 4518500,1409700 4085800,1409700 L783350,1409700 C350720,1409700 0,1094100 0,704850 C0,315570 350720,0.00000000011871 783350,0 Z"/>
								</defs>
							</g>
						</g>
						<g
								transform="matrix(0.0000000000000000000080357, 0.00013123, -0.00013123, 0.0000000000000000000080357, 452, 319)">
							<g fill="#00479d">
								<use xlink:href="#mfid9" fill-rule="evenodd" stroke="none"/>
								<!-- Unsupported Record: EmfPlusRecordTypeSetPixelOffsetMode  -->
								<defs>
									<path id="mfid10"
											d="M782130,0 L4079400,0 C4511400,-0.0000000023743 4861600,315570 4861600,704850 C4861600,1094100 4511400,1409700 4079400,1409700 L782130,1409700 C350170,1409700 0,1094100 0,704850 C0,315570 350170,0.00000000011871 782130,0 Z"/>
								</defs>
							</g>
						</g>
						<g
								transform="matrix(0.0000000000000000000080357, 0.00013123, -0.00013123, 0.0000000000000000000080357, 452, 767)">
							<g fill="#00479d">
								<use xlink:href="#mfid10" fill-rule="evenodd" stroke="none"/>
								<!-- Unsupported Record: EmfPlusRecordTypeSetPixelOffsetMode  -->
								<defs>
									<path id="mfid11"
											d="M783350,0 L4085800,0 C4518500,-0.0000000023615 4869200,313870 4869200,701040 C4869200,1088200 4518500,1402100 4085800,1402100 L783350,1402100 C350720,1402100 0,1088200 0,701040 C0,313870 350720,0.00000000011807 783350,0 Z"/>
								</defs>
							</g>
						</g>
						<g
								transform="matrix(0.0000000000000000000080357, 0.00013123, -0.00013123, 0.0000000000000000000080357, 1254, 135)">
							<g fill="#00479d">
								<use xlink:href="#mfid11" fill-rule="evenodd" stroke="none"/>
								<!-- Unsupported Record: EmfPlusRecordTypeSetPixelOffsetMode  -->
								<defs>
									<path id="mfid12"
											d="M783350,0 L4085800,0 C4518500,-0.0000000023615 4869200,313870 4869200,701040 C4869200,1088200 4518500,1402100 4085800,1402100 L783350,1402100 C350720,1402100 0,1088200 0,701040 C0,313870 350720,0.00000000011807 783350,0 Z"/>
								</defs>
							</g>
						</g>
						<g
								transform="matrix(0.0000000000000000000080357, 0.00013123, -0.00013123, 0.0000000000000000000080357, 1254, 0)">
							<g fill="#00479d">
								<use xlink:href="#mfid12" fill-rule="evenodd" stroke="none"/>
								<!-- Unsupported Record: EmfPlusRecordTypeSetPixelOffsetMode  -->
								<defs>
									<path id="mfid13"
											d="M783350,0 L4085800,0 C4518500,-0.0000000023615 4869200,313870 4869200,701040 C4869200,1088200 4518500,1402100 4085800,1402100 L783350,1402100 C350720,1402100 0,1088200 0,701040 C0,313870 350720,0.00000000011807 783350,0 Z"/>
								</defs>
							</g>
						</g>
						<g
								transform="matrix(0.0000000000000000000080357, 0.00013123, -0.00013123, 0.0000000000000000000080357, 719, 1043)">
							<g fill="#00479d">
								<use xlink:href="#mfid13" fill-rule="evenodd" stroke="none"/>
								<!-- Unsupported Record: EmfPlusRecordTypeSetPixelOffsetMode  -->
								<defs>
									<path id="mfid14"
											d="M783350,0 L4085800,0 C4518500,-0.0000000023615 4869200,313870 4869200,701040 C4869200,1088200 4518500,1402100 4085800,1402100 L783350,1402100 C350720,1402100 0,1088200 0,701040 C0,313870 350720,0.00000000011807 783350,0 Z"/>
								</defs>
							</g>
						</g>
						<g
								transform="matrix(0.0000000000000000000080357, 0.00013123, -0.00013123, 0.0000000000000000000080357, 719, 0)">
							<g fill="#00479d">
								<use xlink:href="#mfid14" fill-rule="evenodd" stroke="none"/>
								<!-- Unsupported Record: EmfPlusRecordTypeSetPixelOffsetMode  -->
								<defs>
									<path id="mfid15"
											d="M783350,0 L4085800,0 C4518500,-0.0000000023615 4869200,313870 4869200,701040 C4869200,1088200 4518500,1402100 4085800,1402100 L783350,1402100 C350720,1402100 0,1088200 0,701040 C0,313870 350720,0.00000000011807 783350,0 Z"/>
								</defs>
							</g>
						</g>
						<g
								transform="matrix(0.0000000000000000000080357, 0.00013123, -0.00013123, 0.0000000000000000000080357, 719, 319)">
							<g fill="#00479d">
								<use xlink:href="#mfid15" fill-rule="evenodd" stroke="none"/>
								<!-- Unsupported Record: EmfPlusRecordTypeSetPixelOffsetMode  -->
								<defs>
									<path id="mfid16"
											d="M782130,0 L4079400,0 C4511400,-0.0000000023615 4861600,313870 4861600,701040 C4861600,1088200 4511400,1402100 4079400,1402100 L782130,1402100 C350170,1402100 0,1088200 0,701040 C0,313870 350170,0.00000000011807 782130,0 Z"/>
								</defs>
							</g>
						</g>
						<g
								transform="matrix(0.0000000000000000000080357, 0.00013123, -0.00013123, 0.0000000000000000000080357, 719, 767)">
							<g fill="#00479d">
								<use xlink:href="#mfid16" fill-rule="evenodd" stroke="none"/>
								<!-- Unsupported Record: EmfPlusRecordTypeSetPixelOffsetMode  -->
								<defs>
									<path id="mfid17"
											d="M783350,0 L4085800,0 C4518500,-0.0000000023743 4869200,315570 4869200,704850 C4869200,1094100 4518500,1409700 4085800,1409700 L783350,1409700 C350720,1409700 0,1094100 0,704850 C0,315570 350720,0.00000000011871 783350,0 Z"/>
								</defs>
							</g>
						</g>
						<g
								transform="matrix(0.0000000000000000000080357, 0.00013123, -0.00013123, 0.0000000000000000000080357, 987, 1043)">
							<g fill="#00479d">
								<use xlink:href="#mfid17" fill-rule="evenodd" stroke="none"/>
								<!-- Unsupported Record: EmfPlusRecordTypeSetPixelOffsetMode  -->
								<defs>
									<path id="mfid18"
											d="M783350,0 L4085800,0 C4518500,-0.0000000023743 4869200,315570 4869200,704850 C4869200,1094100 4518500,1409700 4085800,1409700 L783350,1409700 C350720,1409700 0,1094100 0,704850 C0,315570 350720,0.00000000011871 783350,0 Z"/>
								</defs>
							</g>
						</g>
						<g
								transform="matrix(0.0000000000000000000080357, 0.00013123, -0.00013123, 0.0000000000000000000080357, 987, 0)">
							<g fill="#00479d">
								<use xlink:href="#mfid18" fill-rule="evenodd" stroke="none"/>
								<!-- Unsupported Record: EmfPlusRecordTypeSetPixelOffsetMode  -->
								<defs>
									<path id="mfid19"
											d="M783350,0 L4085800,0 C4518500,-0.0000000023743 4869200,315570 4869200,704850 C4869200,1094100 4518500,1409700 4085800,1409700 L783350,1409700 C350720,1409700 0,1094100 0,704850 C0,315570 350720,0.00000000011871 783350,0 Z"/>
								</defs>
							</g>
						</g>
						<g
								transform="matrix(0.0000000000000000000080357, 0.00013123, -0.00013123, 0.0000000000000000000080357, 987, 319)">
							<g fill="#00479d">
								<use xlink:href="#mfid19" fill-rule="evenodd" stroke="none"/>
								<!-- Unsupported Record: EmfPlusRecordTypeSetPixelOffsetMode  -->
								<defs>
									<path id="mfid20"
											d="M782130,0 L4079400,0 C4511400,-0.0000000023743 4861600,315570 4861600,704850 C4861600,1094100 4511400,1409700 4079400,1409700 L782130,1409700 C350170,1409700 0,1094100 0,704850 C0,315570 350170,0.00000000011871 782130,0 Z"/>
								</defs>
							</g>
						</g>
						<g
								transform="matrix(0.0000000000000000000080357, 0.00013123, -0.00013123, 0.0000000000000000000080357, 987, 767)">
							<g fill="#00479d">
								<use xlink:href="#mfid20" fill-rule="evenodd" stroke="none"/>
							</g>
						</g>
					</g>
				</g>
			</svg>
			<rect x="0" y="0.750024" width="636.378" height="855.95" class="st1"/>
		</g>
	</g>
</svg>
